<?xml version="1.0" encoding="utf-8"?>

<svg version="1.1" id="Livello_1" xmlns="http://www.w3.org/2000/svg" xmlns:xlink="http://www.w3.org/1999/xlink" x="0px" y="0px"
	 viewBox="0 0 1401.4 280.5" style="enable-background:new 0 0 1401.4 280.5;" xml:space="preserve">
<path d="M1022.2,8.7c0,5.7-6.6,10.3-13.9,10.3c-7.1,0-11.1-4.4-11.1-8.7C997.1,5,1003.7,0,1011,0C1018.1,0,1022.2,4.4,1022.2,8.7
	 M1099.6,0c7.5,0,11.5,4.4,11.5,8.7c0,5.7-7,10.3-13.9,10.3c-7.5,0-11.5-4.4-11.5-8.7C1085.7,5,1092.7,0,1099.6,0 M1381.9,91.8
	c12.4,0,19.6,7.3,19.6,14.7c0,10.2-11.8,18-24,18c-12.4,0-19.6-7.3-19.6-14.8C1357.9,99.6,1369.7,91.8,1381.9,91.8 M1206.2,106.6
	c0,10.2-11.8,18-24,18c-12.4,0-19.6-7.3-19.6-14.8c0-10.2,11.8-18,24-18C1199,91.8,1206.2,99.1,1206.2,106.6 M611.2,77.3
	c-12.4,4.8-17.4,5.9-22.4,5.9c-7.7,0-11.1-3.4-10.7-11.5l0.1-1.9l-29.5,10.7c-13.2,4.8-17.2,3.2-17.5-5.7l-0.1-1.8l-22.5,8.7
	c-12,4.5-16.4-2.1-14.7-8.9l0.6-2.3l-29.9,10.8c-1.2,0.4-2.5,0.9-3.8,1.3c-1.3,0.4-2.4,0.6-3.4,0.6c-3.3,0-7-2.2-7.6-4.6l-0.4-1.7
	l-1.5,0.9c-7,4.3-13.2,5.4-19,5.4c-9.2,0-12.7-3.7-12.7-13.9c0-11.1,18-39.2,42-39.2c5.3,0,10.6,1.9,13.9,5.2l1.1,1.1l3.3-5.2h21.3
	l-25.5,37.5l32.3-12.9L521,31.3h21l-25,37.4l23-8.8l18.7-28.6H580l-25.4,37.4l29.8-11.2l34.7-52.7h21.4L631.8,18h22.5l-5.9,9.1
	h-22.4l-22.4,33c-4.5,6.5-1,10.7,7.1,7.5l19.9-7.5c2.8-16.5,16.7-30.1,38.5-30.1c13.4,0,19.4,7.2,21.2,13.5l0.4,1.4l34-13.7h21.8
	l-7.1,10.9l21.7-9.9c14.8-7,17.7,3.3,17,7.4l-0.4,2.4l21.4-9.8c16.2-7.3,18.3,5.3,15.2,9.7l-18.7,27.4l23.7-8.9
	c2.1-10,11-30.5,39-30.5c13.4,0,20.4,7.5,21.6,18.5l0.2,1.8L904.8,39l24.7-36.6h21l-20.2,30.5l3.3-0.9c4.3-1.2,9-2,12.9-2
	c9.8,0,15.7,12.6,5.7,28.1l-2.1,3.3l24.1-9.1l14.3-21h21l-25,37.5l31.9-12.5L1052.2,2h21.4l-44.6,66.8l31.9-12.5l16.7-25h21
	l-25,37.5l29.4-11.4l3.5,9.2l-38.9,14c-2.2,0.8-4,1.5-5.6,2c-1.6,0.5-3,0.7-4.4,0.7c-5,0-8.6-4.7-7.2-10.4l0.6-2.3l-26.3,9.2
	c-2.2,0.8-4.1,1.7-6,2.4c-1.8,0.7-3.3,1.1-4.8,1.1c-6.7,0-9.4-4.7-8-10.4l0.6-2.3l-27.9,10c-2.2,0.8-4,1.5-5.6,2
	c-1.6,0.5-3,0.7-4.4,0.7c-5.9,0-10.1-7-5.4-14l2.3-3.3l-39,14.2C911,85.5,888,85.4,888,69.3c0-2.8,1.4-6.2,3.4-9.8l4.3-6.9
	l-18.1,8.5c-0.9,2.7-2.4,5-4,7c-7,8.9-19.8,15.1-33.5,15.1c-9.9,0-15.9-4.1-20.1-12.1l-0.5-1l-30.7,11.6c-14,5.3-18.8-3.8-13.7-11.7
	l17.4-25.8L768,55.4L749.8,82h-20.2l25.2-37.9l-24.5,11.3L712.5,82h-20.6l24.2-36.7l-25.6,10.2c-4.8,17.2-21.9,27.7-37,27.7
	c-13.6,0-19.8-5.4-22-12.3l-0.4-1.3L611.2,77.3z M465.8,47.3c1-4.9-1.1-7.8-5.6-7.8c-11.4,0-22.9,18.1-22.9,26.6
	c0,3.1,1.4,4.5,4.5,4.5c3.2,0,6.7-1.4,11.5-4.6L465.8,47.3z M652.7,53c-6.5,10.7-8.1,18.3-3.5,20.7c5.2,2.6,9.5-1.7,16.5-12.5
	c2.4-3.8,4.6-8,5.7-11.5c1-3.3,1.4-6.9-1.3-8.7C665.4,37.7,660.6,40,652.7,53 M841.9,53c-6.5,10.7-8.1,18.3-3.5,20.7
	c5.2,2.6,9.5-1.7,16.5-12.5c2.4-3.8,4.6-8,5.7-11.5c1-3.3,1.4-6.9-1.3-8.7C854.6,37.7,849.8,40,841.9,53 M916.5,52.5
	c-6.8,10-7.4,13.1-7.4,15.6c0,2.9,1.6,6.1,6.1,6.1c4.7,0,9.1-3.4,14.7-12.2c4.4-7.6,6.2-12.3,6.2-16.3c0-3.2-1.5-6.1-5.3-6.1
	C926.5,39.5,924.5,41,916.5,52.5 M279,141.5c9.3,0,17.8,3.1,24,8.5l1.1,1l4.8-7.5h35.8l-44.6,66.9l44.3-21.5l30.3-45.4h37l-12.1,18
	l31.6-15.3c8.3-4,11.4-4.7,15.9-4.7c10.5,0,15.1,9.4,13.6,17.7l-0.5,2.5l32.3-15.5c8.3-4,11.3-4.7,15.9-4.7
	c11.1,0,19.4,12.2,9.4,27.3l-27,40.8l43.8-21L596,96.2h37l-32.7,49l3.4-1c5.5-1.6,12.6-2.8,18.5-2.8c12.4,0,22,4.5,22,21.2
	c0,9-3.5,20.7-9.7,28l-3.9,4.6l33.9-16.4c13.6-23.3,34.5-37.4,62-37.4c16.4,0,31.2,4,36.1,15.3l0.5,1.2l38.5-18.8
	c19.3,4.2,41.9,6.2,62.5,7.8l-15.3,23c-20.5,4.7-36.2,24.4-36.2,32c0,6.8,9.9,8.2,20.3,3.2l24.9-12.2c8.9-21.5,34.6-51.4,66.8-51.4
	c9.4,0,18.6,3.5,23.5,8.8l1.1,1.2l5.3-8h37l-44.2,66.1l44.7-21.9l61.1-91.5h37l-43.8,65.3l31.5-15.3c8.3-4,11.3-4.7,15.9-4.7
	c11.1,0,19.4,12.2,9.4,27.3l-27.1,40.8l43.9-21.5l29.9-44.6h37l-44.2,66.1l44.3-21.5l29.9-44.6h37l-11.7,17.5l31.1-14.8
	c8.3-4,11.7-4.7,15.9-4.7c11.1,0,19.4,12.2,9.4,27.3l-27.1,40.8l43.4-21l30.3-45h37l-44.2,66.1l54.1-26.4l5.6,10.9l-67.4,32.3
	c-7.1,3.6-11.3,4.7-16.3,4.7c-11.2,0-15.9-10.4-12.8-20l0.9-2.8l-38,18.1c-8.8,4-11.4,4.7-15.9,4.7c-11.1,0-19-12.6-9.3-27.3
	l27.1-40.8l-37.4,18.3l-31.9,47.8h-37l14.1-21.2l-38.3,18.5c-8.3,4-12.1,4.7-16.7,4.7c-12,0-15.9-10.8-12.8-20.4l0.9-2.9l-38,18.6
	c-8.3,4-11.3,4.7-15.9,4.7c-11.1,0-19.4-12.2-9.4-27.3l27.1-40.8l-37.4,18.3l-31.9,47.8h-37l14.6-21.6L934,229.4l-19.8,30
	c-7.8,12-24.2,21.1-42.6,21.1c-15.2,0-26.3-5.9-34.8-14.5l6.2-8.5c5.8,4.5,14,7.1,20.6,7.1c7.7-0.4,13.3-4.4,18.3-11.4l18.7-27.8
	l-3.8,1.4c-6.3,2.4-14.2,4.3-20.8,4.3c-13.3,0-20-5.1-21.6-21.3l-0.2-1.8l-27.3,13.2c-14.8,7.2-23.8,9.9-32.7,9.9
	c-14.8,0-21.6-6.5-21.6-16.8c0-17.3,13.9-34.6,41.3-46.9l4.4-2l-4.8-0.5c-12.3-1.2-20.3-2.8-27-4.8L764,170.7c0,8.5-3.1,17.4-11,29
	c-13,18.9-33.5,31.5-58.3,31.5c-23.2,0-38-7.9-38-24.4c0-2.8,0-5.9,0.8-8.9l0.7-2.7L614,216.9c-22.3,10.8-38.2,14.3-53.2,14.3
	c-20.7,0-33.9-8.3-32.8-24.3l0.2-2.2l-44.9,21.8c-8.3,4-11.3,4.7-15.9,4.7c-11.1,0-19.4-12.2-9.4-27.3l27.1-40.8l-37.4,18.3
	l-31.9,47.8H380l43.8-66.1l-37.4,18.3l-31.9,47.8h-37l13.8-20.4l-36.4,17.7c-6,2.8-11.4,4.7-15.9,4.7c-6.3,0-12.5-4.4-13.6-10.9
	l-0.3-2l-1.7,1.2c-11.8,8.3-23.6,11.8-33.3,11.8c-11.2,0-16.2-3-19.2-11.9l-0.5-1.4l-20.6,9.9c-9.4,4.7-17.6,5.9-24.7,5.9
	c-5.8,0-12.2-1.9-19.6-5c-7.4-3.1-15.6-7.2-24.8-11.4l-1.2,0.1c-18.3,11.1-39.3,17.9-63.9,17.9c-34.3,0-55.6-11.3-55.6-26
	C0,192,22.3,176,65.3,176c18.3,0,33.8,3.2,47.7,7.6l0.9,0.3c12-15.5,22.7-33.1,34-51.3c11.2-18.1,23-36.7,36.7-53.5
	c27.3-33.5,61.9-59.4,114.5-59.4c43.2,0,62.5,17.1,62.5,34.4c0,35.9-64.8,51-103.5,34.7l4.9-8.8c30.7,4.3,51.7-6.6,58.8-19.2
	c7.6-13.4-0.7-27.2-25.4-27.2c-34,0-56.8,26.6-78.3,59.7c-10.7,16.6-21.2,35-32.7,52.8c-11.4,17.8-23.8,35-38.3,49.4l-1.3,1.3
	l1.7,0.8c7.7,3.6,14.8,7,21.5,9.6c6.7,2.5,13.1,4.2,19.1,4.2c5.9,0,11.3-1.3,20.2-5.7l0.7-1C212.4,181,242.9,141.5,279,141.5
	 M593.9,161.5l-6.7,3.3l-10.6,14.7c-11.7,16.1-13.1,23.2-13.1,27.2c0,4.6,2.9,8.9,9.3,8.9c7.6,0,15.1-6.3,24.3-21.5
	c8.4-13.9,12.2-21.5,12.2-28.3c0-5.1-2.5-7.3-6.5-7.3C600.5,158.6,597.1,159.9,593.9,161.5 M937.7,168.8c1.4-6.9-1.8-11.8-8.4-11.8
	c-7.4,0-17.8,6.8-26.7,18.1c-4.5,5.3-9.4,13.9-13,23.2c-3.3,8.8,1.6,27,22.5,8.2L937.7,168.8z M724.8,157c-13.1,0-37.4,40.8-37.4,49
	c0,6.2,2.9,9.7,8.9,9.7c13.1,0,37.4-40.7,37.4-49C733.7,160.5,730.8,157,724.8,157 M292.2,168.8c1.4-7.3-1.9-11.8-8.4-11.8
	c-18.2,0-39.8,32.6-39.8,46.2c0,4.6,2.1,7.3,6.9,7.3c3.6,0,7.8-1.8,12.7-4.6l5.9-3.4L292.2,168.8z M42.4,198.3
	c-15.6,0-26.1,4.2-26.1,10.5c0,7.1,11.8,12.5,35.8,12.5c15.2,0,27.5-5.3,38.5-13.5l2-1.5l-2.4-0.8C76,201.1,60.2,198.3,42.4,198.3"
	/>
</svg>
